<svg id="Layer_1" data-name="Layer 1" xmlns="http://www.w3.org/2000/svg" viewBox="0 0 240.64 39.42"><defs><style>.cls-1{fill:#fff;stroke:#fff;stroke-miterlimit:10;}</style></defs><path class="cls-1" d="M29.2,110.3c-7.7,0-15.8,1.7-23.9,4A4.6,4.6,0,0,0,2.7,116a5.69,5.69,0,0,0-.8,2.4A61,61,0,0,0,1.4,132a6.57,6.57,0,0,0,.7,3.2,3.81,3.81,0,0,0,2.6,1.5c1.4.2,2.8.4,4.2.5l-.3,8.7a2,2,0,0,0,.7,1.6,1.92,1.92,0,0,0,1.2.4,2.36,2.36,0,0,0,2.4-1.3,32.68,32.68,0,0,1,6.3-8.9,199.63,199.63,0,0,0,20.5-.7,5.36,5.36,0,0,0,4.7-3.7c1.4-4.2,1.6-9.5,1.7-14.7a6.51,6.51,0,0,0-2-5.2,10.53,10.53,0,0,0-4.1-1.7A42.17,42.17,0,0,0,29.2,110.3Zm10.3,3.3a9.42,9.42,0,0,1,3.3,1.3c1.3,1.3,1.2,2.2,1.2,3.7-.1,5.1-.4,10.1-1.5,13.9a3.53,3.53,0,0,1-3,2.6,204.52,204.52,0,0,1-20.7.7,1.14,1.14,0,0,0-.8.3,34.37,34.37,0,0,0-6.9,9.7c-.1.1-.2.2-.3.2a.1.1,0,0,1-.1-.1l.3-9.4a1,1,0,0,0-.9-1L5,134.9a1.51,1.51,0,0,1-1.2-.6,7.79,7.79,0,0,1-.4-2.1,62.23,62.23,0,0,1,.5-13.1,12.09,12.09,0,0,1,.5-1.8,2.6,2.6,0,0,1,1.6-.9c8-2.2,15.7-3.8,23.1-3.8A34.39,34.39,0,0,1,39.5,113.6Zm-27.4,8.1A3.46,3.46,0,0,0,12,126a2.76,2.76,0,0,0,2,1.2,3.49,3.49,0,0,0,2.5-.9,3.53,3.53,0,0,0,.5-4.7,2.63,2.63,0,0,0-2.2-1.2,3.1,3.1,0,0,0-2.7,1.3Zm11.8-1.1a3.13,3.13,0,0,0-2.5,1.6,3.34,3.34,0,0,0-.5,3.2c1,2.2,4.3,2.2,5.6-.1a3.12,3.12,0,0,0,0-3.1,3.26,3.26,0,0,0-2.1-1.7A.9.9,0,0,1,23.9,120.6Zm9.6.2a3.4,3.4,0,0,0-1,.1,3.24,3.24,0,0,0-2.3,3.4,3.47,3.47,0,0,0,1.2,2.3,3.53,3.53,0,0,0,2.9.6,3,3,0,0,0,2.3-2.3,3.07,3.07,0,0,0-.4-2.8,3.37,3.37,0,0,0-2.7-1.3Zm-18.9,1.6a.72.72,0,0,1,.6.4,1.8,1.8,0,0,1-.1,2,1.12,1.12,0,0,1-.9.4c-.2,0-.4-.2-.6-.4a1.67,1.67,0,0,1,0-1.8,1.22,1.22,0,0,1,1-.6Zm9.5.2a2.69,2.69,0,0,1,.7.6,1.08,1.08,0,0,1,0,1.1,1.25,1.25,0,0,1-2,.3,1.82,1.82,0,0,1,.3-1.3,1.41,1.41,0,0,1,1-.7Zm10.5.8a1.66,1.66,0,0,1,.1,1.1,1,1,0,0,1-.8.8,1.46,1.46,0,0,1-1.2-.2,1.62,1.62,0,0,1-.5-.9c-.1-.9.2-1.1.8-1.3A1.47,1.47,0,0,1,34.6,123.4Z" transform="translate(-0.76 -109)"/><path class="cls-1" d="M58.9,114.4a1,1,0,0,1,1-1h6.8a1.08,1.08,0,0,1,.7.3,1,1,0,0,1,.4.7v10.9H79.2V114.4a1,1,0,0,1,1-1H87a1.88,1.88,0,0,1,.8.2.91.91,0,0,1,.3.7v32.2a1,1,0,0,1-1.1,1.1H80.2a.78.78,0,0,1-.7-.3,1,1,0,0,1-.3-.8V133.4H67.8v13.1a.78.78,0,0,1-.3.7,1.14,1.14,0,0,1-.8.3H59.9c-.6,0-1-.3-1-.9Zm62.9,32.7a.86.86,0,0,1-.6.3c-.2,0-.4.1-.6.1H117c-.3,0-.5-.1-.7-.1a1,1,0,0,1-.5-.4c-.1-.2-.3-.4-.3-.6a1.45,1.45,0,0,1-.2-.7l-.7-2.9a10.14,10.14,0,0,1-1,1.6,8.91,8.91,0,0,1-4.1,3,8,8,0,0,1-3.2.5,11.17,11.17,0,0,1-4.8-1,11,11,0,0,1-3.6-2.8,11.78,11.78,0,0,1-2.3-4.1,13.81,13.81,0,0,1-.8-5V119.9a1.7,1.7,0,0,1,.4-1.3,1.59,1.59,0,0,1,1.2-.4h5.3a2.42,2.42,0,0,1,1.4.3,2,2,0,0,1,.4,1.3v15a5.85,5.85,0,0,0,.4,1.9,6.1,6.1,0,0,0,1.2,1.6,5,5,0,0,0,1.7,1.1,4.33,4.33,0,0,0,1.9.4,3.53,3.53,0,0,0,1.7-.4,8.64,8.64,0,0,0,1.6-1,4.43,4.43,0,0,0,1.2-1.5,4.14,4.14,0,0,0,.5-1.9V120a2.35,2.35,0,0,1,.2-.8.92.92,0,0,1,.4-.6l.6-.3c.2,0,.4-.1.6-.1h5.2a1.81,1.81,0,0,1,1.4.5,1.84,1.84,0,0,1,.4,1.3v25.7a1.88,1.88,0,0,1-.2.8,2.65,2.65,0,0,1-.5.6Zm26.6-3.2a17.88,17.88,0,0,1-1.4,1.3,10.1,10.1,0,0,1-1.6,1.3,6.92,6.92,0,0,1-1.9,1,5.7,5.7,0,0,1-2.2.4,14,14,0,0,1-5.8-1.2,13.2,13.2,0,0,1-4.5-3.2,15,15,0,0,1-3-4.8,16.37,16.37,0,0,1,0-11.8,15,15,0,0,1,3-4.8,12.82,12.82,0,0,1,4.5-3.2,14,14,0,0,1,5.8-1.2,5.87,5.87,0,0,1,2.3.4,6.63,6.63,0,0,1,1.9.9,10.1,10.1,0,0,1,1.6,1.3,18.48,18.48,0,0,0,1.4,1.4V111.2a1.59,1.59,0,0,1,.4-1.2,1.73,1.73,0,0,1,1.3-.5h5.2a1.27,1.27,0,0,1,.6.1,2.09,2.09,0,0,1,.6.4,1.27,1.27,0,0,1,.4.6,1.85,1.85,0,0,1,.2.7v34.4c0,1.2-.6,1.8-1.9,1.8h-4.5a1.48,1.48,0,0,1-.7-.1,1.38,1.38,0,0,1-.4-.3l-.3-.6c-.1-.3-.2-.5-.3-.8l-.7-1.8Zm-13.2-11a8.68,8.68,0,0,0,.5,2.8A8.58,8.58,0,0,0,137,138a6.23,6.23,0,0,0,2.1,1.5,6,6,0,0,0,2.7.6,8.68,8.68,0,0,0,2.8-.5,6.51,6.51,0,0,0,2.3-1.5,8.88,8.88,0,0,0,1.6-2.2,7.67,7.67,0,0,0,.7-2.7v-.3a6.71,6.71,0,0,0-.6-2.8,7.63,7.63,0,0,0-1.5-2.3,7.33,7.33,0,0,0-2.3-1.6,7.17,7.17,0,0,0-2.9-.6,6,6,0,0,0-2.7.6,6.52,6.52,0,0,0-2.1,1.6,7.55,7.55,0,0,0-1.3,2.3,7.06,7.06,0,0,0-.6,2.8Zm48.8,11a17.88,17.88,0,0,1-1.4,1.3c-.5.4-1,.9-1.6,1.3a6.92,6.92,0,0,1-1.9,1,5.7,5.7,0,0,1-2.2.4,14,14,0,0,1-5.8-1.2,13.2,13.2,0,0,1-4.5-3.2,15,15,0,0,1-3-4.8,16.37,16.37,0,0,1,0-11.8,15,15,0,0,1,3-4.8,12.82,12.82,0,0,1,4.5-3.2,14,14,0,0,1,5.8-1.2,5.87,5.87,0,0,1,2.3.4,6.63,6.63,0,0,1,1.9.9,10.1,10.1,0,0,1,1.6,1.3,18.48,18.48,0,0,0,1.4,1.4V111.2a1.59,1.59,0,0,1,.4-1.2,1.73,1.73,0,0,1,1.3-.5H191a1.27,1.27,0,0,1,.6.1,2.09,2.09,0,0,1,.6.4,1.27,1.27,0,0,1,.4.6,1.85,1.85,0,0,1,.2.7v34.4c0,1.2-.6,1.8-1.9,1.8h-4.5a1.48,1.48,0,0,1-.7-.1,1.38,1.38,0,0,1-.4-.3l-.3-.6c-.1-.3-.2-.5-.3-.8l-.7-1.8Zm-13.3-11a8.68,8.68,0,0,0,.5,2.8,8.58,8.58,0,0,0,1.3,2.3,6.23,6.23,0,0,0,2.1,1.5,6,6,0,0,0,2.7.6,8.68,8.68,0,0,0,2.8-.5,6.51,6.51,0,0,0,2.3-1.5,8.88,8.88,0,0,0,1.6-2.2,7.67,7.67,0,0,0,.7-2.7v-.3a6.71,6.71,0,0,0-.6-2.8,7.63,7.63,0,0,0-1.5-2.3,7.33,7.33,0,0,0-2.3-1.6,7.17,7.17,0,0,0-2.9-.6,6,6,0,0,0-2.7.6,6.52,6.52,0,0,0-2.1,1.6,7.55,7.55,0,0,0-1.3,2.3,7.06,7.06,0,0,0-.6,2.8Zm28.2-21.5a1.59,1.59,0,0,1,.4-1.2,1.58,1.58,0,0,1,1.3-.5h5.6a.9.9,0,0,1,.5.1,1.76,1.76,0,0,1,.5.4c.1.2.3.3.4.6a1.7,1.7,0,0,1,.1.7v34.3a1.73,1.73,0,0,1-.5,1.3,1.84,1.84,0,0,1-1.3.4h-5.3a1.7,1.7,0,0,1-1.3-.4,2.23,2.23,0,0,1-.4-1.3ZM237.6,144a15.61,15.61,0,0,1-4.6,2.9,12.37,12.37,0,0,1-5.4,1,15.31,15.31,0,0,1-6-1.2,14.34,14.34,0,0,1-4.9-3.2,16.14,16.14,0,0,1-3.4-4.8,14.61,14.61,0,0,1-1.2-6,16.66,16.66,0,0,1,.5-3.9,15.06,15.06,0,0,1,1.4-3.5,12.88,12.88,0,0,1,2.2-3,16.83,16.83,0,0,1,2.9-2.4,12,12,0,0,1,3.5-1.5,13.36,13.36,0,0,1,4-.6,15,15,0,0,1,3.7.5,14.34,14.34,0,0,1,3.4,1.4,12.34,12.34,0,0,1,2.9,2.2,15.6,15.6,0,0,1,2.3,2.8,16.58,16.58,0,0,1,1.5,3.3,14.22,14.22,0,0,1,.5,3.6v2a1.59,1.59,0,0,1-.4,1.2,1.68,1.68,0,0,1-1.1.6,11,11,0,0,1-2.2.2H220.7a8.15,8.15,0,0,0,.9,2.5,6.09,6.09,0,0,0,1.6,1.6,5,5,0,0,0,2,.8,12,12,0,0,0,2,.3,9.85,9.85,0,0,0,1.7-.2,10.93,10.93,0,0,0,1.7-.5,10.09,10.09,0,0,0,1.5-.7,5.22,5.22,0,0,0,1.1-.8,6.13,6.13,0,0,1,.6-.4,1.27,1.27,0,0,1,.6-.1,1.42,1.42,0,0,1,.6.2,4.35,4.35,0,0,1,.7.6l2.4,2.8a.91.91,0,0,1,.3.5c0,.2.1.3.1.5a1.14,1.14,0,0,1-.3.8,2.65,2.65,0,0,0-.6.5Zm-11.1-19.2a3.29,3.29,0,0,0-1.7.4,5.37,5.37,0,0,0-1.6,1,8.64,8.64,0,0,0-1.3,1.4,13,13,0,0,0-1,1.5h11.7c-.3-.6-.7-1.1-1-1.7a8,8,0,0,0-1.3-1.3,6.82,6.82,0,0,0-3.8-1.3Z" transform="translate(-0.76 -109)"/></svg>